<svg xmlns="http://www.w3.org/2000/svg" xmlns:xlink="http://www.w3.org/1999/xlink" aria-hidden="true" role="img"  width="1100" height="1200" viewBox="-550 -600 1100 1200" style="width: 100%; height: auto;"><g transform="translate(-550,-600)"><g transform="translate(50,-0)" stroke="black"><svg width="300" height="400" viewBox="0 0 300 400"><g transform="translate(0,20)" stroke="black" stroke-width="1" fill="black"><g alignment-baseline="middle" font-size="28"><text>NFL Wins by team</text></g><g transform="translate(0,40)" alignment-baseline="middle" font-size="24" stroke="gray" fill="gray"><text>Years 1966 - 2024</text></g><g transform="translate(0,20)" stroke="none" class="font-semibold"><g transform="translate(0,60)"><text>59 Seasons</text></g><g transform="translate(0,80)"><text>32 Teams</text></g><g transform="translate(0,100)"><text>14073 Games Played</text></g></g></g></svg></g><g transform="translate(550, 0)"><svg width="500" height="100"><g fill="none"><g class="fill-blue-800 font-semibold" transform="translate(20,20)"><text font-size="24">Super Bowl Era</text></g><path d="M 3,50 H 497 Z" stroke="black" stroke-width="1"></path><path d="M 5,46 V 54 H 495 V 46 Z" stroke="none" class="fill-blue-800" opacity="0.5"></path><g opacity="1"><path d="M5,46 V 56 Z" stroke="gray" stroke-width="1"></path></g><g opacity="1"><path d="M13.299303944315545,46 V 56 Z" stroke="gray" stroke-width="1"></path></g><g opacity="1"><path d="M21.59860788863109,46 V 56 Z" stroke="gray" stroke-width="1"></path></g><g opacity="1"><path d="M29.920649651972155,46 V 56 Z" stroke="gray" stroke-width="1"></path></g><g opacity="1"><path d="M38.2199535962877,46 V 62 Z" stroke="black" stroke-width="1"></path><text x="25.219953596287702" y="76" font-size="12" fill="black">1970</text></g><g opacity="1"><path d="M46.51925754060325,46 V 56 Z" stroke="gray" stroke-width="1"></path></g><g opacity="1"><path d="M54.818561484918796,46 V 56 Z" stroke="gray" stroke-width="1"></path></g><g opacity="1"><path d="M63.14060324825986,46 V 56 Z" stroke="gray" stroke-width="1"></path></g><g opacity="1"><path d="M71.4399071925754,46 V 56 Z" stroke="gray" stroke-width="1"></path></g><g opacity="1"><path d="M79.73921113689096,46 V 56 Z" stroke="gray" stroke-width="1"></path></g><g opacity="1"><path d="M88.0385150812065,46 V 56 Z" stroke="gray" stroke-width="1"></path></g><g opacity="1"><path d="M96.36055684454756,46 V 56 Z" stroke="gray" stroke-width="1"></path></g><g opacity="1"><path d="M104.65986078886311,46 V 56 Z" stroke="gray" stroke-width="1"></path></g><g opacity="1"><path d="M112.95916473317865,46 V 56 Z" stroke="gray" stroke-width="1"></path></g><g opacity="1"><path d="M121.2584686774942,46 V 62 Z" stroke="black" stroke-width="1"></path><text x="108.2584686774942" y="76" font-size="12" fill="black">1980</text></g><g opacity="1"><path d="M129.58051044083527,46 V 56 Z" stroke="gray" stroke-width="1"></path></g><g opacity="1"><path d="M137.8798143851508,46 V 56 Z" stroke="gray" stroke-width="1"></path></g><g opacity="1"><path d="M146.17911832946635,46 V 56 Z" stroke="gray" stroke-width="1"></path></g><g opacity="1"><path d="M154.47842227378192,46 V 56 Z" stroke="gray" stroke-width="1"></path></g><g opacity="1"><path d="M162.80046403712296,46 V 56 Z" stroke="gray" stroke-width="1"></path></g><g opacity="1"><path d="M171.09976798143853,46 V 56 Z" stroke="gray" stroke-width="1"></path></g><g opacity="1"><path d="M179.39907192575404,46 V 56 Z" stroke="gray" stroke-width="1"></path></g><g opacity="1"><path d="M187.6983758700696,46 V 56 Z" stroke="gray" stroke-width="1"></path></g><g opacity="1"><path d="M196.0204176334107,46 V 56 Z" stroke="gray" stroke-width="1"></path></g><g opacity="1"><path d="M204.31972157772623,46 V 62 Z" stroke="black" stroke-width="1"></path><text x="191.31972157772623" y="76" font-size="12" fill="black">1990</text></g><g opacity="1"><path d="M212.61902552204174,46 V 56 Z" stroke="gray" stroke-width="1"></path></g><g opacity="1"><path d="M220.9183294663573,46 V 56 Z" stroke="gray" stroke-width="1"></path></g><g opacity="1"><path d="M229.24037122969838,46 V 56 Z" stroke="gray" stroke-width="1"></path></g><g opacity="1"><path d="M237.53967517401392,46 V 56 Z" stroke="gray" stroke-width="1"></path></g><g opacity="1"><path d="M245.83897911832946,46 V 56 Z" stroke="gray" stroke-width="1"></path></g><g opacity="1"><path d="M254.13828306264503,46 V 56 Z" stroke="gray" stroke-width="1"></path></g><g opacity="1"><path d="M262.4603248259861,46 V 56 Z" stroke="gray" stroke-width="1"></path></g><g opacity="1"><path d="M270.7596287703016,46 V 56 Z" stroke="gray" stroke-width="1"></path></g><g opacity="1"><path d="M279.05893271461713,46 V 56 Z" stroke="gray" stroke-width="1"></path></g><g opacity="1"><path d="M287.3582366589327,46 V 62 Z" stroke="black" stroke-width="1"></path><text x="274.3582366589327" y="76" font-size="12" fill="black">2000</text></g><g opacity="1"><path d="M295.68027842227383,46 V 56 Z" stroke="gray" stroke-width="1"></path></g><g opacity="1"><path d="M303.97958236658934,46 V 56 Z" stroke="gray" stroke-width="1"></path></g><g opacity="1"><path d="M312.27888631090485,46 V 56 Z" stroke="gray" stroke-width="1"></path></g><g opacity="1"><path d="M320.5781902552204,46 V 56 Z" stroke="gray" stroke-width="1"></path></g><g opacity="1"><path d="M328.9002320185615,46 V 56 Z" stroke="gray" stroke-width="1"></path></g><g opacity="1"><path d="M337.19953596287706,46 V 56 Z" stroke="gray" stroke-width="1"></path></g><g opacity="1"><path d="M345.4988399071926,46 V 56 Z" stroke="gray" stroke-width="1"></path></g><g opacity="1"><path d="M353.7981438515081,46 V 56 Z" stroke="gray" stroke-width="1"></path></g><g opacity="1"><path d="M362.1201856148492,46 V 56 Z" stroke="gray" stroke-width="1"></path></g><g opacity="1"><path d="M370.41948955916473,46 V 62 Z" stroke="black" stroke-width="1"></path><text x="357.41948955916473" y="76" font-size="12" fill="black">2010</text></g><g opacity="1"><path d="M378.71879350348024,46 V 56 Z" stroke="gray" stroke-width="1"></path></g><g opacity="1"><path d="M387.0180974477958,46 V 56 Z" stroke="gray" stroke-width="1"></path></g><g opacity="1"><path d="M395.3401392111369,46 V 56 Z" stroke="gray" stroke-width="1"></path></g><g opacity="1"><path d="M403.63944315545245,46 V 56 Z" stroke="gray" stroke-width="1"></path></g><g opacity="1"><path d="M411.938747099768,46 V 56 Z" stroke="gray" stroke-width="1"></path></g><g opacity="1"><path d="M420.2380510440835,46 V 56 Z" stroke="gray" stroke-width="1"></path></g><g opacity="1"><path d="M428.5600928074246,46 V 56 Z" stroke="gray" stroke-width="1"></path></g><g opacity="1"><path d="M436.8593967517402,46 V 56 Z" stroke="gray" stroke-width="1"></path></g><g opacity="1"><path d="M445.1587006960557,46 V 56 Z" stroke="gray" stroke-width="1"></path></g><g opacity="1"><path d="M453.4580046403712,46 V 62 Z" stroke="black" stroke-width="1"></path><text x="440.4580046403712" y="76" font-size="12" fill="black">2020</text></g><g opacity="1"><path d="M461.7800464037123,46 V 56 Z" stroke="gray" stroke-width="1"></path></g><g opacity="1"><path d="M470.07935034802784,46 V 56 Z" stroke="gray" stroke-width="1"></path></g><g opacity="1"><path d="M478.3786542923434,46 V 56 Z" stroke="gray" stroke-width="1"></path></g><g opacity="1"><path d="M486.6779582366589,46 V 56 Z" stroke="gray" stroke-width="1"></path></g><g opacity="1"><path d="M495,46 V 56 Z" stroke="gray" stroke-width="1"></path></g></g></svg></g></g><g transform="translate(-450,-550)"><svg width="900" height="900" viewBox="-450 -529.4117647058823 920 1120"><g fill="#ffff"><g class="group"><path id="arizona_cardinals_235" fill="#97233F" d="M0,-398.449A398.449,398.449,0,0,1,77.733,-390.793L19.509,-98.079A100,100,0,0,0,0,-100Z" stroke-width="2" class="stroke-white group-hover:fill-slate-100 group-hover:scale-125 group-hover:stroke-[#97233F]"></path><g transform="rotate(-84.375),translate(189.61215109192898,0)" stroke="none" stroke-width="1" fill="white" class="bg-none opacity-40 group-hover:fill-[#97233F] group-hover:opacity-100"><text text-anchor="start" alignment-baseline="middle" font-size="12" transform="translate(0,-10) rotate(0)">Arizona</text><text text-anchor="start" alignment-baseline="middle" font-size="24" transform="translate(0,10) rotate(0)">Cardinals</text></g><g transform="rotate(-84.375),translate(418.448604367716,-20)" stroke="#97233F" stroke-width="2" fill="#97233F" class="bg-none"><text alignment-baseline="middle" font-size="24" transform="rotate(90)">427</text></g></g><g class="group"><path id="atlanta_falcons_451" fill="#A71930" d="M79.754,-400.951A408.806,408.806,0,0,1,156.443,-377.688L38.268,-92.388A100,100,0,0,0,19.509,-98.079Z" stroke-width="2" class="stroke-white group-hover:fill-slate-100 group-hover:scale-125 group-hover:stroke-[#A71930]"></path><g transform="rotate(-73.125),translate(192.20157185837496,0)" stroke="none" stroke-width="1" fill="white" class="bg-none opacity-40 group-hover:fill-[#A71930] group-hover:opacity-100"><text text-anchor="start" alignment-baseline="middle" font-size="12" transform="translate(0,-10) rotate(0)">Atlanta</text><text text-anchor="start" alignment-baseline="middle" font-size="24" transform="translate(0,10) rotate(0)">Falcons</text></g><g transform="rotate(-73.125),translate(428.80628743349985,-20)" stroke="#A71930" stroke-width="2" fill="#A71930" class="bg-none"><text alignment-baseline="middle" font-size="24" transform="rotate(90)">451</text></g></g><g class="group"><path id="baltimore_ravens_248" fill="#241773" d="M118.817,-286.849A310.483,310.483,0,0,1,172.495,-258.158L55.557,-83.147A100,100,0,0,0,38.268,-92.388Z" stroke-width="2" class="stroke-white group-hover:fill-slate-100 group-hover:scale-125 group-hover:stroke-[#241773]"></path><g transform="rotate(-61.875),translate(167.62087348130012,0)" stroke="none" stroke-width="1" fill="white" class="bg-none opacity-40 group-hover:fill-[#241773] group-hover:opacity-100"><text text-anchor="start" alignment-baseline="middle" font-size="12" transform="translate(0,-10) rotate(0)">Baltimore</text><text text-anchor="start" alignment-baseline="middle" font-size="24" transform="translate(0,10) rotate(0)">Ravens</text></g><g transform="rotate(-61.875),translate(330.4834939252005,-20)" stroke="#241773" stroke-width="2" fill="#241773" class="bg-none"><text alignment-baseline="middle" font-size="24" transform="rotate(90)">248</text></g></g><g class="group"><path id="buffalo_bills_475" fill="#00338D" d="M232.733,-348.309A418.908,418.908,0,0,1,296.213,-296.213L70.711,-70.711A100,100,0,0,0,55.557,-83.147Z" stroke-width="2" class="stroke-white group-hover:fill-slate-100 group-hover:scale-125 group-hover:stroke-[#00338D]"></path><g transform="rotate(-50.625),translate(194.72698761772855,0)" stroke="none" stroke-width="1" fill="white" class="bg-none opacity-40 group-hover:fill-[#00338D] group-hover:opacity-100"><text text-anchor="start" alignment-baseline="middle" font-size="12" transform="translate(0,-10) rotate(0)">Buffalo</text><text text-anchor="start" alignment-baseline="middle" font-size="24" transform="translate(0,10) rotate(0)">Bills</text></g><g transform="rotate(-50.625),translate(438.9079504709142,-20)" stroke="#00338D" stroke-width="2" fill="#00338D" class="bg-none"><text alignment-baseline="middle" font-size="24" transform="rotate(90)">475</text></g></g><g class="group"><path id="carolina_panthers_226" fill="#0085CA" d="M210.637,-210.637A297.885,297.885,0,0,1,247.682,-165.496L83.147,-55.557A100,100,0,0,0,70.711,-70.711Z" stroke-width="2" class="stroke-white group-hover:fill-slate-100 group-hover:scale-125 group-hover:stroke-[#0085CA]"></path><g transform="rotate(-39.37500000000001),translate(164.47125446731434,0)" stroke="none" stroke-width="1" fill="white" class="bg-none opacity-40 group-hover:fill-[#0085CA] group-hover:opacity-100"><text text-anchor="start" alignment-baseline="middle" font-size="12" transform="translate(0,-10) rotate(0)">Carolina</text><text text-anchor="start" alignment-baseline="middle" font-size="24" transform="translate(0,10) rotate(0)">Panthers</text></g><g transform="rotate(-39.37500000000001),translate(317.8850178692573,-20)" stroke="#0085CA" stroke-width="2" fill="#0085CA" class="bg-none"><text alignment-baseline="middle" font-size="24" transform="rotate(90)">226</text></g></g><g class="group"><path id="chicago_bears_442" fill="#0B162A" d="M336.706,-224.98A404.953,404.953,0,0,1,374.128,-154.969L92.388,-38.268A100,100,0,0,0,83.147,-55.557Z" stroke-width="2" class="stroke-white group-hover:fill-slate-100 group-hover:scale-125 group-hover:stroke-[#0B162A]"></path><g transform="rotate(-28.125000000000007),translate(191.2383007976087,0)" stroke="none" stroke-width="1" fill="white" class="bg-none opacity-40 group-hover:fill-[#0B162A] group-hover:opacity-100"><text text-anchor="start" alignment-baseline="middle" font-size="12" transform="translate(0,-10) rotate(0)">Chicago</text><text text-anchor="start" alignment-baseline="middle" font-size="24" transform="translate(0,10) rotate(0)">Bears</text></g><g transform="rotate(-28.125000000000007),translate(424.95320319043475,-20)" stroke="#0B162A" stroke-width="2" fill="#0B162A" class="bg-none"><text alignment-baseline="middle" font-size="24" transform="rotate(90)">442</text></g></g><g class="group"><path id="cincinnati_bengals_428" fill="#FB4F14" d="M368.522,-152.647A398.886,398.886,0,0,1,391.221,-77.819L98.079,-19.509A100,100,0,0,0,92.388,-38.268Z" stroke-width="2" class="stroke-white group-hover:fill-slate-100 group-hover:scale-125 group-hover:stroke-[#FB4F14]"></path><g transform="rotate(-16.874999999999986),translate(189.72138606492427,0)" stroke="none" stroke-width="1" fill="white" class="bg-none opacity-40 group-hover:fill-[#FB4F14] group-hover:opacity-100"><text text-anchor="start" alignment-baseline="middle" font-size="12" transform="translate(0,-10) rotate(0)">Cincinnati</text><text text-anchor="start" alignment-baseline="middle" font-size="24" transform="translate(0,10) rotate(0)">Bengals</text></g><g transform="rotate(-16.874999999999986),translate(418.88554425969716,-20)" stroke="#FB4F14" stroke-width="2" fill="#FB4F14" class="bg-none"><text alignment-baseline="middle" font-size="24" transform="rotate(90)">428</text></g></g><g class="group"><path id="cleveland_browns_400" fill="#311D00" d="M379.039,-75.395A386.465,386.465,0,0,1,386.465,0L100,0A100,100,0,0,0,98.079,-19.509Z" stroke-width="2" class="stroke-white group-hover:fill-slate-100 group-hover:scale-125 group-hover:stroke-[#311D00]"></path><g transform="rotate(-5.625000000000014),translate(186.61613436354634,0)" stroke="none" stroke-width="1" fill="white" class="bg-none opacity-40 group-hover:fill-[#311D00] group-hover:opacity-100"><text text-anchor="start" alignment-baseline="middle" font-size="12" transform="translate(0,-10) rotate(0)">Cleveland</text><text text-anchor="start" alignment-baseline="middle" font-size="24" transform="translate(0,10) rotate(0)">Browns</text></g><g transform="rotate(-5.625000000000014),translate(406.46453745418535,-20)" stroke="#311D00" stroke-width="2" fill="#311D00" class="bg-none"><text alignment-baseline="middle" font-size="24" transform="rotate(90)">400</text></g></g><g class="group"><path id="dallas_cowboys_527" fill="#041E42" d="M440,0A440,440,0,0,1,431.546,85.84L98.079,19.509A100,100,0,0,0,100,0Z" stroke-width="2" class="stroke-white group-hover:fill-slate-100 group-hover:scale-125 group-hover:stroke-[#041E42]"></path><g transform="rotate(5.625000000000014),translate(200,0)" stroke="none" stroke-width="1" fill="white" class="bg-none opacity-40 group-hover:fill-[#041E42] group-hover:opacity-100"><text text-anchor="start" alignment-baseline="middle" font-size="12" transform="translate(0,-10) rotate(0)">Dallas</text><text text-anchor="start" alignment-baseline="middle" font-size="24" transform="translate(0,10) rotate(0)">Cowboys</text></g><g transform="rotate(5.625000000000014),translate(460,20)" stroke="#041E42" stroke-width="2" fill="#041E42" class="bg-none"><text alignment-baseline="middle" font-size="24" transform="rotate(-90)">527</text></g></g><g class="group"><path id="denver_broncos_487" fill="#002244" d="M415.724,82.693A423.869,423.869,0,0,1,391.603,162.207L92.388,38.268A100,100,0,0,0,98.079,19.509Z" stroke-width="2" class="stroke-white group-hover:fill-slate-100 group-hover:scale-125 group-hover:stroke-[#002244]"></path><g transform="rotate(16.874999999999986),translate(195.96712819579722,0)" stroke="none" stroke-width="1" fill="white" class="bg-none opacity-40 group-hover:fill-[#002244] group-hover:opacity-100"><text text-anchor="start" alignment-baseline="middle" font-size="12" transform="translate(0,-10) rotate(0)">Denver</text><text text-anchor="start" alignment-baseline="middle" font-size="24" transform="translate(0,10) rotate(0)">Broncos</text></g><g transform="rotate(16.874999999999986),translate(443.8685127831888,20)" stroke="#002244" stroke-width="2" fill="#002244" class="bg-none"><text alignment-baseline="middle" font-size="24" transform="rotate(-90)">487</text></g></g><g class="group"><path id="detroit_lions_405" fill="#0076B6" d="M359.123,148.754A388.712,388.712,0,0,1,323.202,215.957L83.147,55.557A100,100,0,0,0,92.388,38.268Z" stroke-width="2" class="stroke-white group-hover:fill-slate-100 group-hover:scale-125 group-hover:stroke-[#0076B6]"></path><g transform="rotate(28.125000000000014),translate(187.17792129438033,0)" stroke="none" stroke-width="1" fill="white" class="bg-none opacity-40 group-hover:fill-[#0076B6] group-hover:opacity-100"><text text-anchor="start" alignment-baseline="middle" font-size="12" transform="translate(0,-10) rotate(0)">Detroit</text><text text-anchor="start" alignment-baseline="middle" font-size="24" transform="translate(0,10) rotate(0)">Lions</text></g><g transform="rotate(28.125000000000014),translate(408.71168517752125,20)" stroke="#0076B6" stroke-width="2" fill="#0076B6" class="bg-none"><text alignment-baseline="middle" font-size="24" transform="rotate(-90)">405</text></g></g><g class="group"><path id="green_bay_packers_519" fill="#203731" d="M363.204,242.685A436.821,436.821,0,0,1,308.879,308.879L70.711,70.711A100,100,0,0,0,83.147,55.557Z" stroke-width="2" class="stroke-white group-hover:fill-slate-100 group-hover:scale-125 group-hover:stroke-[#203731]"></path><g transform="rotate(39.375),translate(199.20534076506013,0)" stroke="none" stroke-width="1" fill="white" class="bg-none opacity-40 group-hover:fill-[#203731] group-hover:opacity-100"><text text-anchor="start" alignment-baseline="middle" font-size="12" transform="translate(0,-10) rotate(0)">Green Bay</text><text text-anchor="start" alignment-baseline="middle" font-size="24" transform="translate(0,10) rotate(0)">Packers</text></g><g transform="rotate(39.375),translate(456.8213630602405,20)" stroke="#203731" stroke-width="2" fill="#203731" class="bg-none"><text alignment-baseline="middle" font-size="24" transform="rotate(-90)">519</text></g></g><g class="group"><path id="houston_texans_160" fill="#03202F" d="M181.304,181.304A256.402,256.402,0,0,1,142.449,213.19L55.557,83.147A100,100,0,0,0,70.711,70.711Z" stroke-width="2" class="stroke-white group-hover:fill-slate-100 group-hover:scale-125 group-hover:stroke-[#03202F]"></path><g transform="rotate(50.625),translate(154.10047556564564,0)" stroke="none" stroke-width="1" fill="white" class="bg-none opacity-40 group-hover:fill-[#03202F] group-hover:opacity-100"><text text-anchor="start" alignment-baseline="middle" font-size="12" transform="translate(0,-10) rotate(0)">Houston</text><text text-anchor="start" alignment-baseline="middle" font-size="24" transform="translate(0,10) rotate(0)">Texans</text></g><g transform="rotate(50.625),translate(276.4019022625826,20)" stroke="#03202F" stroke-width="2" fill="#03202F" class="bg-none"><text alignment-baseline="middle" font-size="24" transform="rotate(-90)">160</text></g></g><g class="group"><path id="indianapolis_colts_357" fill="#002C5F" d="M232.733,348.309A418.908,418.908,0,0,1,160.309,387.02L38.268,92.388A100,100,0,0,0,55.557,83.147Z" stroke-width="2" class="stroke-white group-hover:fill-slate-100 group-hover:scale-125 group-hover:stroke-[#002C5F]"></path><g transform="rotate(61.875),translate(194.72698761772855,0)" stroke="none" stroke-width="1" fill="white" class="bg-none opacity-40 group-hover:fill-[#002C5F] group-hover:opacity-100"><text text-anchor="start" alignment-baseline="middle" font-size="12" transform="translate(0,-10) rotate(0)">Indianapolis</text><text text-anchor="start" alignment-baseline="middle" font-size="24" transform="translate(0,10) rotate(0)">Colts</text></g><g transform="rotate(61.875),translate(438.9079504709142,20)" stroke="#002C5F" stroke-width="2" fill="#002C5F" class="bg-none"><text alignment-baseline="middle" font-size="24" transform="rotate(-90)">475</text></g></g><g class="group"><path id="jacksonville_jaguars_203" fill="#006778" d="M108.727,262.49A284.117,284.117,0,0,1,55.429,278.658L19.509,98.079A100,100,0,0,0,38.268,92.388Z" stroke-width="2" class="stroke-white group-hover:fill-slate-100 group-hover:scale-125 group-hover:stroke-[#006778]"></path><g transform="rotate(73.125),translate(161.0292988162109,0)" stroke="none" stroke-width="1" fill="white" class="bg-none opacity-40 group-hover:fill-[#006778] group-hover:opacity-100"><text text-anchor="start" alignment-baseline="middle" font-size="12" transform="translate(0,-10) rotate(0)">Jacksonville</text><text text-anchor="start" alignment-baseline="middle" font-size="24" transform="translate(0,10) rotate(0)">Jaguars</text></g><g transform="rotate(73.125),translate(304.11719526484364,20)" stroke="#006778" stroke-width="2" fill="#006778" class="bg-none"><text alignment-baseline="middle" font-size="24" transform="rotate(-90)">203</text></g></g><g class="group"><path id="kansas_city_chiefs_499" fill="#E31837" d="M83.649,420.533A428.772,428.772,0,0,1,0,428.772L0,100A100,100,0,0,0,19.509,98.079Z" stroke-width="2" class="stroke-white group-hover:fill-slate-100 group-hover:scale-125 group-hover:stroke-[#E31837]"></path><g transform="rotate(84.375),translate(197.19292225070257,0)" stroke="none" stroke-width="1" fill="white" class="bg-none opacity-40 group-hover:fill-[#E31837] group-hover:opacity-100"><text text-anchor="start" alignment-baseline="middle" font-size="12" transform="translate(0,-10) rotate(0)">Kansas City</text><text text-anchor="start" alignment-baseline="middle" font-size="24" transform="translate(0,10) rotate(0)">Chiefs</text></g><g transform="rotate(84.375),translate(448.7716890028102,20)" stroke="#E31837" stroke-width="2" fill="#E31837" class="bg-none"><text alignment-baseline="middle" font-size="24" transform="rotate(-90)">499</text></g></g><g class="group"><path id="las_vegas_raiders_34" fill="#000000" d="M0,431.606A431.606,431.606,0,0,1,-84.202,423.313L-19.509,98.079A100,100,0,0,0,0,100Z" stroke-width="2" class="stroke-white group-hover:fill-slate-100 group-hover:scale-125 group-hover:stroke-[#000000]"></path><g transform="rotate(95.62500000000003),translate(197.90153815161244,0)" stroke="none" stroke-width="1" fill="white" class="bg-none opacity-40 group-hover:fill-[#000000] group-hover:opacity-100"><text text-anchor="end" alignment-baseline="middle" font-size="12" transform="translate(0,10) rotate(180)">Las Vegas</text><text text-anchor="end" alignment-baseline="middle" font-size="24" transform="translate(0,-10) rotate(180)">Raiders</text></g><g transform="rotate(95.62500000000003),translate(451.6061526064497,20)" stroke="#000000" stroke-width="2" fill="#000000" class="bg-none"><text alignment-baseline="middle" font-size="24" transform="rotate(-90)">506</text></g></g><g class="group"><path id="los_angeles_chargers_56" fill="#0080C6" d="M-78.159,392.931A400.629,400.629,0,0,1,-153.314,370.133L-38.268,92.388A100,100,0,0,0,-19.509,98.079Z" stroke-width="2" class="stroke-white group-hover:fill-slate-100 group-hover:scale-125 group-hover:stroke-[#0080C6]"></path><g transform="rotate(106.875),translate(190.15713460809081,0)" stroke="none" stroke-width="1" fill="white" class="bg-none opacity-40 group-hover:fill-[#0080C6] group-hover:opacity-100"><text text-anchor="end" alignment-baseline="middle" font-size="12" transform="translate(0,10) rotate(180)">Los Angeles</text><text text-anchor="end" alignment-baseline="middle" font-size="24" transform="translate(0,-10) rotate(180)">Chargers</text></g><g transform="rotate(106.875),translate(420.6285384323633,20)" stroke="#0080C6" stroke-width="2" fill="#0080C6" class="bg-none"><text alignment-baseline="middle" font-size="24" transform="rotate(-90)">432</text></g></g><g class="group"><path id="los_angeles_rams_323" fill="#002244" d="M-163.617,395.006A427.551,427.551,0,0,1,-237.535,355.496L-55.557,83.147A100,100,0,0,0,-38.268,92.388Z" stroke-width="2" class="stroke-white group-hover:fill-slate-100 group-hover:scale-125 group-hover:stroke-[#002244]"></path><g transform="rotate(118.125),translate(196.88779163215975,0)" stroke="none" stroke-width="1" fill="white" class="bg-none opacity-40 group-hover:fill-[#002244] group-hover:opacity-100"><text text-anchor="end" alignment-baseline="middle" font-size="12" transform="translate(0,10) rotate(180)">Los Angeles</text><text text-anchor="end" alignment-baseline="middle" font-size="24" transform="translate(0,-10) rotate(180)">Rams</text></g><g transform="rotate(118.125),translate(447.551166528639,20)" stroke="#002244" stroke-width="2" fill="#002244" class="bg-none"><text alignment-baseline="middle" font-size="24" transform="rotate(-90)">496</text></g></g><g class="group"><path id="miami_dolphins_482" fill="#008E97" d="M-234.344,350.721A421.809,421.809,0,0,1,-298.264,298.264L-70.711,70.711A100,100,0,0,0,-55.557,83.147Z" stroke-width="2" class="stroke-white group-hover:fill-slate-100 group-hover:scale-125 group-hover:stroke-[#008E97]"></path><g transform="rotate(129.37499999999997),translate(195.4521753702719,0)" stroke="none" stroke-width="1" fill="white" class="bg-none opacity-40 group-hover:fill-[#008E97] group-hover:opacity-100"><text text-anchor="end" alignment-baseline="middle" font-size="12" transform="translate(0,10) rotate(180)">Miami</text><text text-anchor="end" alignment-baseline="middle" font-size="24" transform="translate(0,-10) rotate(180)">Dolphins</text></g><g transform="rotate(129.37499999999997),translate(441.8087014810876,20)" stroke="#008E97" stroke-width="2" fill="#008E97" class="bg-none"><text alignment-baseline="middle" font-size="24" transform="rotate(-90)">482</text></g></g><g class="group"><path id="minnesota_vikings_499" fill="#4F2683" d="M-303.187,303.187A428.772,428.772,0,0,1,-356.511,238.213L-83.147,55.557A100,100,0,0,0,-70.711,70.711Z" stroke-width="2" class="stroke-white group-hover:fill-slate-100 group-hover:scale-125 group-hover:stroke-[#4F2683]"></path><g transform="rotate(140.62499999999997),translate(197.19292225070257,0)" stroke="none" stroke-width="1" fill="white" class="bg-none opacity-40 group-hover:fill-[#4F2683] group-hover:opacity-100"><text text-anchor="end" alignment-baseline="middle" font-size="12" transform="translate(0,10) rotate(180)">Minnesota</text><text text-anchor="end" alignment-baseline="middle" font-size="24" transform="translate(0,-10) rotate(180)">Vikings</text></g><g transform="rotate(140.62499999999997),translate(448.7716890028102,20)" stroke="#4F2683" stroke-width="2" fill="#4F2683" class="bg-none"><text alignment-baseline="middle" font-size="24" transform="rotate(-90)">499</text></g></g><g class="group"><path id="new_england_patriots_493" fill="#002244" d="M-358.867,239.788A431.606,431.606,0,0,1,-398.752,165.169L-92.388,38.268A100,100,0,0,0,-83.147,55.557Z" stroke-width="2" class="stroke-white group-hover:fill-slate-100 group-hover:scale-125 group-hover:stroke-[#002244]"></path><g transform="rotate(151.875),translate(197.90153815161244,0)" stroke="none" stroke-width="1" fill="white" class="bg-none opacity-40 group-hover:fill-[#002244] group-hover:opacity-100"><text text-anchor="end" alignment-baseline="middle" font-size="12" transform="translate(0,10) rotate(180)">New England</text><text text-anchor="end" alignment-baseline="middle" font-size="24" transform="translate(0,-10) rotate(180)">Patriots</text></g><g transform="rotate(151.875),translate(451.6061526064497,20)" stroke="#002244" stroke-width="2" fill="#002244" class="bg-none"><text alignment-baseline="middle" font-size="24" transform="rotate(-90)">506</text></g></g><g class="group"><path id="new_orleans_saints_418" fill="#D3BC8D" d="M-364.465,150.966A394.494,394.494,0,0,1,-386.914,76.962L-98.079,19.509A100,100,0,0,0,-92.388,38.268Z" stroke-width="2" class="stroke-white group-hover:fill-slate-100 group-hover:scale-125 group-hover:stroke-[#D3BC8D]"></path><g transform="rotate(163.12499999999994),translate(188.62359202151282,0)" stroke="none" stroke-width="1" fill="white" class="bg-none opacity-40 group-hover:fill-[#D3BC8D] group-hover:opacity-100"><text text-anchor="end" alignment-baseline="middle" font-size="12" transform="translate(0,10) rotate(180)">New Orleans</text><text text-anchor="end" alignment-baseline="middle" font-size="24" transform="translate(0,-10) rotate(180)">Saints</text></g><g transform="rotate(163.12499999999994),translate(414.4943680860513,20)" stroke="#D3BC8D" stroke-width="2" fill="#D3BC8D" class="bg-none"><text alignment-baseline="middle" font-size="24" transform="rotate(-90)">418</text></g></g><g class="group"><path id="new_york_giants_438" fill="#0B2265" d="M-395.481,78.666A403.229,403.229,0,0,1,-403.229,0L-100,0A100,100,0,0,0,-98.079,19.509Z" stroke-width="2" class="stroke-white group-hover:fill-slate-100 group-hover:scale-125 group-hover:stroke-[#0B2265]"></path><g transform="rotate(174.375),translate(190.80722580347873,0)" stroke="none" stroke-width="1" fill="white" class="bg-none opacity-40 group-hover:fill-[#0B2265] group-hover:opacity-100"><text text-anchor="end" alignment-baseline="middle" font-size="12" transform="translate(0,10) rotate(180)">New York</text><text text-anchor="end" alignment-baseline="middle" font-size="24" transform="translate(0,-10) rotate(180)">Giants</text></g><g transform="rotate(174.375),translate(423.2289032139149,20)" stroke="#0B2265" stroke-width="2" fill="#0B2265" class="bg-none"><text alignment-baseline="middle" font-size="24" transform="rotate(-90)">438</text></g></g><g class="group"><path id="new_york_jets_431" fill="#125740" d="M-400.194,0A400.194,400.194,0,0,1,-392.504,-78.074L-98.079,-19.509A100,100,0,0,0,-100,0Z" stroke-width="2" class="stroke-white group-hover:fill-slate-100 group-hover:scale-125 group-hover:stroke-[#125740]"></path><g transform="rotate(185.62499999999994),translate(190.04837539587956,0)" stroke="none" stroke-width="1" fill="white" class="bg-none opacity-40 group-hover:fill-[#125740] group-hover:opacity-100"><text text-anchor="end" alignment-baseline="middle" font-size="12" transform="translate(0,10) rotate(180)">New York</text><text text-anchor="end" alignment-baseline="middle" font-size="24" transform="translate(0,-10) rotate(180)">Jets</text></g><g transform="rotate(185.62499999999994),translate(420.19350158351824,-20)" stroke="#125740" stroke-width="2" fill="#125740" class="bg-none"><text alignment-baseline="middle" font-size="24" transform="rotate(90)">431</text></g></g><g class="group"><path id="philadelphia_eagles_460" fill="#004C54" d="M-404.695,-80.499A412.623,412.623,0,0,1,-381.214,-157.904L-92.388,-38.268A100,100,0,0,0,-98.079,-19.509Z" stroke-width="2" class="stroke-white group-hover:fill-slate-100 group-hover:scale-125 group-hover:stroke-[#004C54]"></path><g transform="rotate(196.875),translate(193.15584826978093,0)" stroke="none" stroke-width="1" fill="white" class="bg-none opacity-40 group-hover:fill-[#004C54] group-hover:opacity-100"><text text-anchor="end" alignment-baseline="middle" font-size="12" transform="translate(0,10) rotate(180)">Philadelphia</text><text text-anchor="end" alignment-baseline="middle" font-size="24" transform="translate(0,-10) rotate(180)">Eagles</text></g><g transform="rotate(196.875),translate(432.62339307912373,-20)" stroke="#004C54" stroke-width="2" fill="#004C54" class="bg-none"><text alignment-baseline="middle" font-size="24" transform="rotate(90)">460</text></g></g><g class="group"><path id="pittsburgh_steelers_500" fill="#FFB612" d="M-396.509,-164.239A429.178,429.178,0,0,1,-356.848,-238.438L-83.147,-55.557A100,100,0,0,0,-92.388,-38.268Z" stroke-width="2" class="stroke-white group-hover:fill-slate-100 group-hover:scale-125 group-hover:stroke-[#FFB612]"></path><g transform="rotate(208.125),translate(197.29443962383863,0)" stroke="none" stroke-width="1" fill="white" class="bg-none opacity-40 group-hover:fill-[#FFB612] group-hover:opacity-100"><text text-anchor="end" alignment-baseline="middle" font-size="12" transform="translate(0,10) rotate(180)">Pittsburgh</text><text text-anchor="end" alignment-baseline="middle" font-size="24" transform="translate(0,-10) rotate(180)">Steelers</text></g><g transform="rotate(208.125),translate(449.17775849535445,-20)" stroke="#FFB612" stroke-width="2" fill="#FFB612" class="bg-none"><text alignment-baseline="middle" font-size="24" transform="rotate(90)">500</text></g></g><g class="group"><path id="san_francisco_49ers_527" fill="#AA0000" d="M-365.847,-244.451A440,440,0,0,1,-311.127,-311.127L-70.711,-70.711A100,100,0,0,0,-83.147,-55.557Z" stroke-width="2" class="stroke-white group-hover:fill-slate-100 group-hover:scale-125 group-hover:stroke-[#AA0000]"></path><g transform="rotate(219.37499999999994),translate(200,0)" stroke="none" stroke-width="1" fill="white" class="bg-none opacity-40 group-hover:fill-[#AA0000] group-hover:opacity-100"><text text-anchor="end" alignment-baseline="middle" font-size="12" transform="translate(0,10) rotate(180)">San Francisco</text><text text-anchor="end" alignment-baseline="middle" font-size="24" transform="translate(0,-10) rotate(180)">49ers</text></g><g transform="rotate(219.37499999999994),translate(460,-20)" stroke="#AA0000" stroke-width="2" fill="#AA0000" class="bg-none"><text alignment-baseline="middle" font-size="24" transform="rotate(90)">527</text></g></g><g class="group"><path id="seattle_seahawks_396" fill="#002244" d="M-271.994,-271.994A384.657,384.657,0,0,1,-213.704,-319.831L-55.557,-83.147A100,100,0,0,0,-70.711,-70.711Z" stroke-width="2" class="stroke-white group-hover:fill-slate-100 group-hover:scale-125 group-hover:stroke-[#002244]"></path><g transform="rotate(230.625),translate(186.1643418589307,0)" stroke="none" stroke-width="1" fill="white" class="bg-none opacity-40 group-hover:fill-[#002244] group-hover:opacity-100"><text text-anchor="end" alignment-baseline="middle" font-size="12" transform="translate(0,10) rotate(180)">Seattle</text><text text-anchor="end" alignment-baseline="middle" font-size="24" transform="translate(0,-10) rotate(180)">Seahawks</text></g><g transform="rotate(230.625),translate(404.6573674357228,-20)" stroke="#002244" stroke-width="2" fill="#002244" class="bg-none"><text alignment-baseline="middle" font-size="24" transform="rotate(90)">396</text></g></g><g class="group"><path id="tampa_bay_buccaneers_354" fill="#D50A0A" d="M-202.862,-303.605A365.142,365.142,0,0,1,-139.734,-337.348L-38.268,-92.388A100,100,0,0,0,-55.557,-83.147Z" stroke-width="2" class="stroke-white group-hover:fill-slate-100 group-hover:scale-125 group-hover:stroke-[#D50A0A]"></path><g transform="rotate(241.875),translate(181.2856205331871,0)" stroke="none" stroke-width="1" fill="white" class="bg-none opacity-40 group-hover:fill-[#D50A0A] group-hover:opacity-100"><text text-anchor="end" alignment-baseline="middle" font-size="12" transform="translate(0,10) rotate(180)">Tampa Bay</text><text text-anchor="end" alignment-baseline="middle" font-size="24" transform="translate(0,-10) rotate(180)">Buccaneers</text></g><g transform="rotate(241.875),translate(385.14248213274846,-20)" stroke="#D50A0A" stroke-width="2" fill="#D50A0A" class="bg-none"><text alignment-baseline="middle" font-size="24" transform="rotate(90)">354</text></g></g><g class="group"><path id="tennessee_titans_227" fill="#0C2340" d="M-158.71,-383.159A414.729,414.729,0,0,1,-80.91,-406.76L-19.509,-98.079A100,100,0,0,0,-38.268,-92.388Z" stroke-width="2" class="stroke-white group-hover:fill-slate-100 group-hover:scale-125 group-hover:stroke-[#0C2340]"></path><g transform="rotate(253.12499999999994),translate(193.68220676663861,0)" stroke="none" stroke-width="1" fill="white" class="bg-none opacity-40 group-hover:fill-[#0C2340] group-hover:opacity-100"><text text-anchor="end" alignment-baseline="middle" font-size="12" transform="translate(0,10) rotate(180)">Tennessee</text><text text-anchor="end" alignment-baseline="middle" font-size="24" transform="translate(0,-10) rotate(180)">Titans</text></g><g transform="rotate(253.12499999999994),translate(434.7288270665544,-20)" stroke="#0C2340" stroke-width="2" fill="#0C2340" class="bg-none"><text alignment-baseline="middle" font-size="24" transform="rotate(90)">465</text></g></g><g class="group"><path id="washington_commanders_13" fill="#773141" d="M-80.499,-404.695A412.623,412.623,0,0,1,0,-412.623L0,-100A100,100,0,0,0,-19.509,-98.079Z" stroke-width="2" class="stroke-white group-hover:fill-slate-100 group-hover:scale-125 group-hover:stroke-[#773141]"></path><g transform="rotate(264.375),translate(193.15584826978093,0)" stroke="none" stroke-width="1" fill="white" class="bg-none opacity-40 group-hover:fill-[#773141] group-hover:opacity-100"><text text-anchor="end" alignment-baseline="middle" font-size="12" transform="translate(0,10) rotate(180)">Washington</text><text text-anchor="end" alignment-baseline="middle" font-size="24" transform="translate(0,-10) rotate(180)">Commanders</text></g><g transform="rotate(264.375),translate(432.62339307912373,-20)" stroke="#773141" stroke-width="2" fill="#773141" class="bg-none"><text alignment-baseline="middle" font-size="24" transform="rotate(90)">460</text></g></g></g></svg></g></svg>